<svg width="130" height="31" viewBox="0 0 130 31" fill="none" xmlns="http://www.w3.org/2000/svg">
<g clip-path="url(#clip0_3_2)">
<mask id="mask0_3_2" style="mask-type:luminance" maskUnits="userSpaceOnUse" x="0" y="0" width="130" height="31">
<path d="M129.893 0.196156H0V30.3379H129.893V0.196156Z" fill="white"></path>
</mask>
<g mask="url(#mask0_3_2)">
<path d="M18.307 23.5425L14.8674 30.3355L11.4256 23.5403C12.4581 24.0705 13.6279 24.3682 14.8674 24.3682C16.107 24.3682 17.2744 24.0705 18.307 23.5425Z" fill="white"></path>
<path d="M18.3557 7.08218C17.3115 6.53801 16.1255 6.23334 14.8674 6.23334C13.6092 6.23334 12.4255 6.54033 11.3813 7.08218L14.8674 0.196156L18.3557 7.08218Z" fill="white"></path>
<path d="M19.7696 15.2659C19.7696 13.7077 20.3092 12.3822 21.4045 11.3194C22.4999 10.2566 23.8395 9.71706 25.444 9.71706C26.6301 9.71706 27.665 10.0264 28.5581 10.6264C29.4533 11.2264 30.0998 11.9682 30.486 12.8473L28.4511 13.6333C27.9114 12.524 26.8023 11.738 25.444 11.738C24.4883 11.738 23.6858 12.0775 23.0394 12.7566C22.3767 13.4357 22.0533 14.2682 22.0533 15.2682C22.0533 16.2682 22.3767 17.1031 23.0394 17.7798C23.6858 18.4589 24.4883 18.7984 25.444 18.7984C26.7999 18.7984 27.9114 18.0124 28.4511 16.9031L30.486 17.6891C30.0998 18.5682 29.4533 19.3077 28.5581 19.9101C27.6626 20.5124 26.6301 20.8193 25.444 20.8193C23.8417 20.8193 22.4999 20.2798 21.4045 19.217C20.3092 18.1542 19.7696 16.8287 19.7696 15.2705" fill="white"></path>
<path d="M33.7813 15.2659C33.7813 16.2682 34.1045 17.1008 34.7673 17.7775C35.4163 18.4566 36.2161 18.7961 37.172 18.7961C38.1278 18.7961 38.9441 18.4566 39.593 17.7775C40.2394 17.0984 40.565 16.2659 40.565 15.2659C40.565 14.2659 40.2418 13.431 39.593 12.7543C38.9463 12.0752 38.1441 11.7357 37.172 11.7357C36.1998 11.7357 35.4139 12.0752 34.7673 12.7543C34.1045 13.4333 33.7813 14.2659 33.7813 15.2659ZM31.5 15.2659C31.5 13.7077 32.0394 12.3822 33.1347 11.3194C34.2302 10.2566 35.5697 9.71706 37.1742 9.71706C38.779 9.71706 40.1185 10.2566 41.2138 11.3194C42.3092 12.3822 42.8487 13.7077 42.8487 15.2659C42.8487 16.824 42.3092 18.1496 41.2138 19.2124C40.1185 20.2752 38.779 20.8147 37.1742 20.8147C35.5697 20.8147 34.2302 20.2752 33.1347 19.2124C32.0394 18.1496 31.5 16.824 31.5 15.2659Z" fill="white"></path>
<path d="M51.9742 20.1844V9.87056H54.1788V20.6613H49.8928L46.7324 10.3496V20.6613H44.5278V9.87056H48.7975L51.9742 20.1844Z" fill="white"></path>
<path d="M58.2696 15.2659C58.2696 16.2682 58.5928 17.1008 59.2557 17.7775C59.9045 18.4566 60.7046 18.7961 61.6603 18.7961C62.6161 18.7961 63.4324 18.4566 64.0812 17.7775C64.7279 17.0984 65.0533 16.2659 65.0533 15.2659C65.0533 14.2659 64.7301 13.431 64.0812 12.7543C63.4348 12.0752 62.6324 11.7357 61.6603 11.7357C60.6883 11.7357 59.9022 12.0752 59.2557 12.7543C58.5928 13.4333 58.2696 14.2659 58.2696 15.2659ZM55.9883 15.2659C55.9883 13.7077 56.5277 12.3822 57.6232 11.3194C58.7185 10.2566 60.058 9.71706 61.6627 9.71706C63.2673 9.71706 64.6068 10.2566 65.7023 11.3194C66.7975 12.3822 67.337 13.7077 67.337 15.2659C67.337 16.824 66.7975 18.1496 65.7023 19.2124C64.6068 20.2752 63.2673 20.8147 61.6627 20.8147C60.058 20.8147 58.7185 20.2752 57.6232 19.2124C56.5277 18.1496 55.9883 16.824 55.9883 15.2659Z" fill="white"></path>
<path d="M80.8648 9.87056V20.6613H78.7834V10.4403L76.8578 20.6613H72.9555L71.0299 10.3636V20.6613H68.9485V9.87056H73.0183L74.9299 20.0914L76.8578 9.87056H80.8648Z" fill="white"></path>
<path d="M87.9486 10.5171L86.0369 16.3589H89.8439L87.9486 10.5171ZM93.6068 20.6613H91.2487L90.4788 18.317H85.4068L84.6509 20.6613H82.416L86.0532 9.87056H89.9695L93.6068 20.6613Z" fill="white"></path>
<path d="M98.6207 20.6613H96.4185V11.8287H93.1184V9.87056H101.937V11.8287H98.6207V20.6613Z" fill="white"></path>
<path d="M105.828 9.87056H103.623V20.6613H105.828V9.87056Z" fill="white"></path>
<path d="M107.572 15.2659C107.572 13.7077 108.111 12.3822 109.207 11.3194C110.302 10.2566 111.642 9.71706 113.246 9.71706C114.432 9.71706 115.465 10.0264 116.36 10.6264C117.255 11.2264 117.902 11.9682 118.288 12.8473L116.253 13.6333C115.714 12.524 114.604 11.738 113.246 11.738C112.29 11.738 111.488 12.0775 110.841 12.7566C110.179 13.4357 109.856 14.2682 109.856 15.2682C109.856 16.2682 110.179 17.1031 110.841 17.7798C111.49 18.4589 112.29 18.7984 113.246 18.7984C114.602 18.7984 115.714 18.0124 116.253 16.9031L118.288 17.6891C117.902 18.5682 117.255 19.3077 116.36 19.9101C115.467 20.51 114.432 20.8193 113.246 20.8193C111.644 20.8193 110.302 20.2798 109.207 19.217C108.111 18.1542 107.572 16.8287 107.572 15.2705" fill="white"></path>
<path d="M124.234 10.5171L122.323 16.3589H126.13L124.234 10.5171ZM129.893 20.6613H127.535L126.765 18.317H121.693L120.937 20.6613H118.702L122.339 9.87056H126.255L129.893 20.6613Z" fill="white"></path>
<path d="M18.4302 20.6682H11.2349V9.86352H18.4302V11.824H13.4442V14.2937H18.2744V16.2379H13.4442V18.7077H18.4302V20.6682Z" fill="white"></path>
<path d="M6.83951 11.803C6.30464 12.8402 6.0023 14.0193 6.0023 15.2658C6.0023 16.5123 6.30464 17.6914 6.83951 18.7286L0 15.2658L6.83951 11.8007V11.803Z" fill="white"></path>
</g>
</g>
<defs>
<clipPath id="clip0_3_2">
<rect width="130" height="30.4128" fill="white"></rect>
</clipPath>
</defs>
</svg>